<svg width="200" height="200" viewBox="0 0 200 200" fill="none" xmlns="http://www.w3.org/2000/svg">
<g filter="url(#filter0_b_355_3)">
<rect width="200" height="200" rx="25" fill="url(#paint0_radial_355_3)" fill-opacity="0.4"/>
<rect width="200" height="200" rx="25" fill="url(#paint1_radial_355_3)" fill-opacity="0.4"/>
<rect x="0.5" y="0.5" width="199" height="199" rx="24.5" stroke="#0F0F0F"/>
<rect x="0.5" y="0.5" width="199" height="199" rx="24.5" stroke="white" stroke-opacity="0.1"/>
<rect x="0.5" y="0.5" width="199" height="199" rx="24.5" stroke="url(#paint2_radial_355_3)"/>
<rect x="0.5" y="0.5" width="199" height="199" rx="24.5" stroke="url(#paint3_radial_355_3)"/>
</g>
<path d="M19.9518 100.058C19.9518 99.1047 20.1278 98.1733 20.4798 97.264C20.8318 96.34 21.3451 95.504 22.0198 94.756C22.6945 94.008 23.5158 93.414 24.4838 92.974C25.4518 92.5193 26.5518 92.292 27.7838 92.292C29.2505 92.292 30.5191 92.6073 31.5898 93.238C32.6751 93.8687 33.4818 94.69 34.0098 95.702L31.2378 97.638C31.0031 97.0807 30.6878 96.648 30.2918 96.34C29.9105 96.032 29.4851 95.8193 29.0158 95.702C28.5611 95.57 28.1211 95.504 27.6958 95.504C27.0065 95.504 26.4051 95.6433 25.8918 95.922C25.3785 96.186 24.9531 96.5453 24.6158 97C24.2785 97.4547 24.0291 97.9607 23.8678 98.518C23.7065 99.0753 23.6258 99.6327 23.6258 100.19C23.6258 100.806 23.7211 101.4 23.9118 101.972C24.1025 102.544 24.3738 103.05 24.7258 103.49C25.0925 103.93 25.5325 104.282 26.0458 104.546C26.5591 104.795 27.1238 104.92 27.7398 104.92C28.1798 104.92 28.6271 104.847 29.0818 104.7C29.5365 104.553 29.9545 104.326 30.3358 104.018C30.7318 103.695 31.0325 103.277 31.2378 102.764L34.1858 104.502C33.8778 105.265 33.3718 105.917 32.6678 106.46C31.9638 107.003 31.1645 107.421 30.2698 107.714C29.3898 107.993 28.5171 108.132 27.6518 108.132C26.5225 108.132 25.4811 107.905 24.5278 107.45C23.5891 106.981 22.7751 106.365 22.0858 105.602C21.4111 104.825 20.8831 103.959 20.5018 103.006C20.1351 102.038 19.9518 101.055 19.9518 100.058ZM44.9103 108.132C43.6636 108.132 42.6003 107.927 41.7203 107.516C40.8403 107.091 40.1216 106.519 39.5643 105.8C39.0216 105.067 38.6183 104.238 38.3543 103.314C38.105 102.375 37.9803 101.393 37.9803 100.366V92.38H41.5883V100.366C41.5883 100.953 41.647 101.525 41.7643 102.082C41.8816 102.625 42.0723 103.109 42.3363 103.534C42.6003 103.959 42.9376 104.297 43.3483 104.546C43.7736 104.795 44.2943 104.92 44.9103 104.92C45.541 104.92 46.069 104.795 46.4943 104.546C46.9196 104.282 47.257 103.937 47.5063 103.512C47.7556 103.072 47.939 102.581 48.0563 102.038C48.1736 101.495 48.2323 100.938 48.2323 100.366V92.38H51.8403V100.366C51.8403 101.451 51.701 102.463 51.4223 103.402C51.1583 104.341 50.7476 105.169 50.1903 105.888C49.633 106.592 48.9143 107.142 48.0343 107.538C47.169 107.934 46.1276 108.132 44.9103 108.132ZM69.7498 103.996C69.7498 104.891 69.5078 105.639 69.0238 106.24C68.5545 106.827 67.9165 107.267 67.1098 107.56C66.3032 107.853 65.4158 108 64.4478 108H56.8358V92.38H65.5258C66.2592 92.38 66.8898 92.578 67.4178 92.974C67.9605 93.3553 68.3712 93.854 68.6498 94.47C68.9432 95.086 69.0898 95.724 69.0898 96.384C69.0898 97.1173 68.8992 97.8213 68.5178 98.496C68.1365 99.156 67.5792 99.6547 66.8458 99.992C67.7405 100.256 68.4445 100.725 68.9578 101.4C69.4858 102.075 69.7498 102.94 69.7498 103.996ZM66.0758 103.27C66.0758 102.933 66.0098 102.639 65.8778 102.39C65.7458 102.126 65.5698 101.921 65.3498 101.774C65.1445 101.613 64.8952 101.532 64.6018 101.532H60.4438V104.942H64.4478C64.7558 104.942 65.0272 104.869 65.2618 104.722C65.5112 104.575 65.7092 104.377 65.8558 104.128C66.0025 103.879 66.0758 103.593 66.0758 103.27ZM60.4438 95.46V98.694H63.9858C64.2498 98.694 64.4918 98.6353 64.7118 98.518C64.9465 98.4007 65.1372 98.2247 65.2838 97.99C65.4305 97.7407 65.5038 97.4327 65.5038 97.066C65.5038 96.714 65.4378 96.4207 65.3058 96.186C65.1885 95.9513 65.0272 95.7753 64.8218 95.658C64.6165 95.526 64.3818 95.46 64.1178 95.46H60.4438ZM85.0529 104.832V108H74.0749V92.38H84.8549V95.548H77.6829V98.584H83.8429V101.51H77.6829V104.832H85.0529ZM98.8168 96.956C98.7728 96.8827 98.6188 96.7727 98.3548 96.626C98.0908 96.4647 97.7608 96.296 97.3648 96.12C96.9688 95.944 96.5362 95.79 96.0668 95.658C95.5975 95.526 95.1282 95.46 94.6588 95.46C94.0428 95.46 93.5662 95.57 93.2288 95.79C92.8915 95.9953 92.7228 96.318 92.7228 96.758C92.7228 97.11 92.8475 97.3887 93.0968 97.594C93.3608 97.7993 93.7348 97.9827 94.2188 98.144C94.7028 98.2907 95.2968 98.4667 96.0008 98.672C96.9982 98.936 97.8635 99.2587 98.5968 99.64C99.3302 100.007 99.8875 100.483 100.269 101.07C100.665 101.657 100.863 102.434 100.863 103.402C100.863 104.282 100.701 105.03 100.379 105.646C100.056 106.247 99.6162 106.739 99.0588 107.12C98.5162 107.487 97.8928 107.758 97.1888 107.934C96.4848 108.095 95.7588 108.176 95.0108 108.176C94.2482 108.176 93.4635 108.103 92.6568 107.956C91.8648 107.795 91.1022 107.575 90.3688 107.296C89.6355 107.003 88.9608 106.651 88.3448 106.24L89.9288 103.094C89.9875 103.167 90.1782 103.307 90.5008 103.512C90.8235 103.703 91.2195 103.908 91.6888 104.128C92.1728 104.333 92.7082 104.517 93.2948 104.678C93.8815 104.839 94.4755 104.92 95.0768 104.92C95.7222 104.92 96.1988 104.817 96.5068 104.612C96.8295 104.407 96.9908 104.121 96.9908 103.754C96.9908 103.358 96.8222 103.05 96.4848 102.83C96.1622 102.61 95.7148 102.412 95.1428 102.236C94.5855 102.06 93.9402 101.862 93.2068 101.642C92.2535 101.349 91.4615 101.019 90.8308 100.652C90.2148 100.285 89.7528 99.838 89.4448 99.31C89.1515 98.782 89.0048 98.122 89.0048 97.33C89.0048 96.23 89.2615 95.306 89.7748 94.558C90.3028 93.7953 91.0068 93.2233 91.8868 92.842C92.7668 92.446 93.7275 92.248 94.7688 92.248C95.5022 92.248 96.2062 92.336 96.8808 92.512C97.5702 92.688 98.2082 92.908 98.7948 93.172C99.3962 93.436 99.9315 93.7 100.401 93.964L98.8168 96.956ZM117.082 95.548H112.33V108H108.722V95.548H103.948V92.38H117.082V95.548ZM127.754 108.132C126.507 108.132 125.444 107.927 124.564 107.516C123.684 107.091 122.965 106.519 122.408 105.8C121.865 105.067 121.462 104.238 121.198 103.314C120.949 102.375 120.824 101.393 120.824 100.366V92.38H124.432V100.366C124.432 100.953 124.491 101.525 124.608 102.082C124.725 102.625 124.916 103.109 125.18 103.534C125.444 103.959 125.781 104.297 126.192 104.546C126.617 104.795 127.138 104.92 127.754 104.92C128.385 104.92 128.913 104.795 129.338 104.546C129.763 104.282 130.101 103.937 130.35 103.512C130.599 103.072 130.783 102.581 130.9 102.038C131.017 101.495 131.076 100.938 131.076 100.366V92.38H134.684V100.366C134.684 101.451 134.545 102.463 134.266 103.402C134.002 104.341 133.591 105.169 133.034 105.888C132.477 106.592 131.758 107.142 130.878 107.538C130.013 107.934 128.971 108.132 127.754 108.132ZM139.68 108V92.38H145.51C147.226 92.38 148.656 92.732 149.8 93.436C150.958 94.1253 151.831 95.064 152.418 96.252C153.004 97.4253 153.298 98.7307 153.298 100.168C153.298 101.752 152.975 103.131 152.33 104.304C151.684 105.477 150.775 106.387 149.602 107.032C148.443 107.677 147.079 108 145.51 108H139.68ZM149.624 100.168C149.624 99.2587 149.462 98.4593 149.14 97.77C148.817 97.066 148.348 96.5233 147.732 96.142C147.116 95.746 146.375 95.548 145.51 95.548H143.288V104.832H145.51C146.39 104.832 147.13 104.634 147.732 104.238C148.348 103.827 148.817 103.27 149.14 102.566C149.462 101.847 149.624 101.048 149.624 100.168ZM157.628 108V92.38H161.236V108H157.628ZM173.265 108.132C172.092 108.132 171.029 107.912 170.075 107.472C169.137 107.017 168.323 106.416 167.633 105.668C166.959 104.905 166.438 104.055 166.071 103.116C165.705 102.163 165.521 101.18 165.521 100.168C165.521 99.1267 165.712 98.1367 166.093 97.198C166.489 96.2593 167.032 95.4233 167.721 94.69C168.425 93.942 169.254 93.3553 170.207 92.93C171.161 92.5047 172.202 92.292 173.331 92.292C174.49 92.292 175.539 92.5193 176.477 92.974C177.431 93.414 178.245 94.0153 178.919 94.778C179.609 95.5407 180.137 96.3987 180.503 97.352C180.87 98.2907 181.053 99.2513 181.053 100.234C181.053 101.275 180.863 102.265 180.481 103.204C180.1 104.143 179.557 104.986 178.853 105.734C178.149 106.467 177.321 107.054 176.367 107.494C175.429 107.919 174.395 108.132 173.265 108.132ZM169.195 100.212C169.195 100.813 169.283 101.4 169.459 101.972C169.635 102.529 169.892 103.028 170.229 103.468C170.581 103.908 171.014 104.26 171.527 104.524C172.041 104.788 172.627 104.92 173.287 104.92C173.977 104.92 174.578 104.788 175.091 104.524C175.605 104.245 176.03 103.879 176.367 103.424C176.705 102.969 176.954 102.463 177.115 101.906C177.291 101.334 177.379 100.755 177.379 100.168C177.379 99.5667 177.291 98.9873 177.115 98.43C176.939 97.8727 176.675 97.374 176.323 96.934C175.971 96.4793 175.539 96.1273 175.025 95.878C174.512 95.6287 173.933 95.504 173.287 95.504C172.598 95.504 171.997 95.636 171.483 95.9C170.985 96.164 170.559 96.5233 170.207 96.978C169.87 97.418 169.613 97.924 169.437 98.496C169.276 99.0533 169.195 99.6253 169.195 100.212Z" fill="white"/>
<defs>
<filter id="filter0_b_355_3" x="-10" y="-10" width="220" height="220" filterUnits="userSpaceOnUse" color-interpolation-filters="sRGB">
<feFlood flood-opacity="0" result="BackgroundImageFix"/>
<feGaussianBlur in="BackgroundImageFix" stdDeviation="5"/>
<feComposite in2="SourceAlpha" operator="in" result="effect1_backgroundBlur_355_3"/>
<feBlend mode="normal" in="SourceGraphic" in2="effect1_backgroundBlur_355_3" result="shape"/>
</filter>
<radialGradient id="paint0_radial_355_3" cx="0" cy="0" r="1" gradientUnits="userSpaceOnUse" gradientTransform="translate(-13 -15) rotate(44.7844) scale(469.876)">
<stop stop-color="#95FF04"/>
<stop offset="1" stop-color="white" stop-opacity="0"/>
</radialGradient>
<radialGradient id="paint1_radial_355_3" cx="0" cy="0" r="1" gradientUnits="userSpaceOnUse" gradientTransform="translate(194.5 196.5) rotate(-131.974) scale(160.737)">
<stop stop-color="white"/>
<stop offset="1" stop-opacity="0"/>
</radialGradient>
<radialGradient id="paint2_radial_355_3" cx="0" cy="0" r="1" gradientUnits="userSpaceOnUse" gradientTransform="translate(-9.99998 -15) rotate(47.1798) scale(204.502)">
<stop stop-color="#B2FE48"/>
<stop offset="1" stop-opacity="0"/>
</radialGradient>
<radialGradient id="paint3_radial_355_3" cx="0" cy="0" r="1" gradientUnits="userSpaceOnUse" gradientTransform="translate(205.5 206.5) rotate(-131.025) scale(234.617)">
<stop stop-color="white"/>
<stop offset="1" stop-opacity="0"/>
</radialGradient>
</defs>
</svg>
