<svg width="22" height="24" viewBox="0 0 22 24" fill="none" xmlns="http://www.w3.org/2000/svg">
<path d="M8.17949 19.8611C3.05128 21.4306 3.05128 17.2454 1 16.7223M15.359 23V18.9509C15.3974 18.452 15.3314 17.9504 15.1651 17.4796C14.9989 17.0087 14.7363 16.5794 14.3949 16.2201C17.6154 15.8539 21 14.6088 21 8.89609C20.9997 7.4353 20.4489 6.03053 19.4615 4.97252C19.9291 3.6945 19.896 2.28185 19.3692 1.02803C19.3692 1.02803 18.159 0.661834 15.359 2.57653C13.0082 1.9266 10.5302 1.9266 8.17949 2.57653C5.37949 0.661834 4.16923 1.02803 4.16923 1.02803C3.64244 2.28185 3.60938 3.6945 4.07692 4.97252C3.08218 6.03837 2.53079 7.45584 2.53846 8.92748C2.53846 14.5983 5.92308 15.8434 9.14359 16.2515C8.80615 16.6072 8.54591 17.0314 8.3798 17.4965C8.2137 17.9616 8.14544 18.4571 8.17949 18.9509V23" stroke="#6D6D6D" stroke-width="2" stroke-linecap="round" stroke-linejoin="round"/>
</svg>
